<svg width="71" height="69" viewBox="0 0 71 69" fill="none" xmlns="http://www.w3.org/2000/svg">
<g filter="url(#filter0_d_62_80)">
<path d="M11.5479 34.6417C8.28702 39.652 14.3646 41.7771 17.811 42.2133C18.3081 42.5872 18.2087 43.5219 18.2087 43.5219L19.004 51.3739C19.468 53.0253 21.2309 55.9916 24.5713 54.6456C28.7468 52.963 27.852 45.2045 27.7526 43.7089C27.6737 42.5221 28.5953 42.1973 29.3864 41.9184L29.4058 41.9116L32.624 41.0703C34.9105 40.6029 36.7 37.8199 36.7 35.2026C36.7 33.1087 33.9826 31.8374 32.624 31.4635C26.9573 30.4353 14.8087 29.6314 11.5479 34.6417Z" fill="#FE76B8"/>
<path d="M11.5479 34.6417C8.28702 39.652 14.3646 41.7771 17.811 42.2133C18.3081 42.5872 18.2087 43.5219 18.2087 43.5219L19.004 51.3739C19.468 53.0253 21.2309 55.9916 24.5713 54.6456C28.7468 52.963 27.852 45.2045 27.7526 43.7089C27.6737 42.5221 28.5953 42.1973 29.3864 41.9184L29.4058 41.9116L32.624 41.0703C34.9105 40.6029 36.7 37.8199 36.7 35.2026C36.7 33.1087 33.9826 31.8374 32.624 31.4635C26.9573 30.4353 14.8087 29.6314 11.5479 34.6417Z" fill="#FF6B81"/>
<path d="M11.7795 28.9082C14.5718 34.1354 19.9432 30.9496 19.9432 28.3109L20.1423 25.4237C20.6201 23.9105 21.4697 24.6605 21.8347 25.2246L22.5316 27.1162C23.0294 29.041 25.2396 32.6914 30.0979 31.8949C34.9563 31.0985 34.9762 27.9127 34.3788 26.4193C34.047 25.6229 32.6067 24.0698 29.5006 24.2291C26.3944 24.3884 25.3524 23.7645 25.2196 23.4326C35.1753 21.4415 35.3412 14.7712 34.1797 11.685C32.5993 8.25063 27.2506 5.51246 17.8525 7.90182C8.45433 10.2912 8.99661 22.6864 11.7795 28.9082Z" fill="#00A3FE"/>
<path d="M11.7795 28.9082C14.5718 34.1354 19.9432 30.9496 19.9432 28.3109L20.1423 25.4237C20.6201 23.9105 21.4697 24.6605 21.8347 25.2246L22.5316 27.1162C23.0294 29.041 25.2396 32.6914 30.0979 31.8949C34.9563 31.0985 34.9762 27.9127 34.3788 26.4193C34.047 25.6229 32.6067 24.0698 29.5006 24.2291C26.3944 24.3884 25.3524 23.7645 25.2196 23.4326C35.1753 21.4415 35.3412 14.7712 34.1797 11.685C32.5993 8.25063 27.2506 5.51246 17.8525 7.90182C8.45433 10.2912 8.99661 22.6864 11.7795 28.9082Z" fill="#1CB0F6"/>
<path d="M40.0036 55.3802H54.8351C58.6666 55.3802 59.7275 52.8041 59.779 51.5161V41.392C59.779 36.88 54.7579 30.1705 47.0332 30.727C39.3084 31.2834 35.2916 37.3437 35.2916 41.392C35.343 42.4225 35.4151 45.5962 35.2916 50.0477C35.168 54.4992 38.3814 55.4575 40.0036 55.3802Z" fill="#FECE00"/>
<path d="M40.0036 55.3802H54.8351C58.6666 55.3802 59.7275 52.8041 59.779 51.5161V41.392C59.779 36.88 54.7579 30.1705 47.0332 30.727C39.3084 31.2834 35.2916 37.3437 35.2916 41.392C35.343 42.4225 35.4151 45.5962 35.2916 50.0477C35.168 54.4992 38.3814 55.4575 40.0036 55.3802Z" fill="#FF8A3D"/>
<path d="M33.9865 14.9118C33.2697 22.4781 36.8737 27.7546 38.7652 29.4471C43.2254 33.1108 50.9775 31.8364 54.2961 30.7413C56.7186 29.5798 61.4442 24.967 60.9664 15.8078C60.4885 6.64864 54.3956 6.48271 51.4089 7.54464C49.5753 8.24154 46.4109 11.2481 48.4222 17.6994C50.4336 24.1507 48.7957 26.029 47.7253 26.1617C46.4311 26.4936 44.3603 25.2657 46.4311 17.6994C48.5019 10.1331 44.5064 7.51146 42.2497 7.14642C39.794 6.58227 34.7033 7.34553 33.9865 14.9118Z" fill="#FE9900"/>
<path d="M33.9865 14.9118C33.2697 22.4781 36.8737 27.7546 38.7652 29.4471C43.2254 33.1108 50.9775 31.8364 54.2961 30.7413C56.7186 29.5798 61.4442 24.967 60.9664 15.8078C60.4885 6.64864 54.3956 6.48271 51.4089 7.54464C49.5753 8.24154 46.4109 11.2481 48.4222 17.6994C50.4336 24.1507 48.7957 26.029 47.7253 26.1617C46.4311 26.4936 44.3603 25.2657 46.4311 17.6994C48.5019 10.1331 44.5064 7.51146 42.2497 7.14642C39.794 6.58227 34.7033 7.34553 33.9865 14.9118Z" fill="#7C4DFF"/>
<circle cx="42.1562" cy="41.347" r="3.68359" fill="white"/>
<circle cx="40.9622" cy="40.5505" r="2.2898" fill="black"/>
<circle cx="42.1562" cy="41.347" r="3.68359" fill="white"/>
<circle cx="40.9622" cy="40.5505" r="2.2898" fill="black"/>
<circle cx="51.1162" cy="41.347" r="3.68359" fill="white"/>
<circle cx="49.9221" cy="40.5505" r="2.2898" fill="black"/>
<circle cx="51.1162" cy="41.347" r="3.68359" fill="white"/>
<circle cx="49.9221" cy="40.5505" r="2.2898" fill="black"/>
<path d="M23.2405 19.14C23.6297 19.4376 24.1281 19.5441 24.6211 19.5441H27.4168C27.6384 19.5441 27.8652 19.522 28.0348 19.3817C29.176 18.4373 31.3828 13.8156 26.3591 12.6296C25.8352 12.5287 25.3135 12.5722 24.8215 12.7259C25.7734 12.8223 26.7985 15.6547 24.8215 16.2309C23.2399 16.6918 22.454 15.6508 22.2587 15.0726C21.6551 16.4162 21.7788 18.0221 23.2405 19.14Z" fill="white"/>
<path d="M22.2587 15.0726C22.454 15.6508 23.2399 16.6918 24.8215 16.2309C26.7985 15.6547 25.7734 12.8223 24.8215 12.7259C23.7074 13.0741 22.7461 13.9879 22.2587 15.0726Z" fill="black"/>
<path d="M22.1261 15.6675C22.1065 14.9751 22.0265 14.236 21.5481 13.7277C20.5646 12.6828 19.4168 12.605 18.7063 12.7665C18.4866 12.8164 18.3093 12.9652 18.1584 13.13C18.793 13.9552 19.6814 15.7498 18.1584 16.326C16.6354 16.9022 15.8641 15.9272 15.6689 15.3676C15.4842 15.5192 15.376 15.743 15.376 15.9796V16.4167C15.376 17.1746 15.8827 17.8422 16.6214 18.0576L21.2159 19.3967C21.2712 19.4128 21.3311 19.3954 21.3687 19.3523L21.8487 18.8014C22.0715 18.5457 22.2451 18.249 22.2487 17.9122C22.2549 17.3302 22.1482 16.4489 22.1261 15.6675Z" fill="white"/>
<path d="M15.6689 15.3676C15.8641 15.9272 16.6354 16.9022 18.1584 16.326C19.6814 15.7498 18.793 13.9552 18.1584 13.13C17.588 13.7527 16.4248 14.7473 15.6689 15.3676Z" fill="black"/>
<path d="M23.2405 19.14C23.6297 19.4376 24.1281 19.5441 24.6211 19.5441H27.4168C27.6384 19.5441 27.8652 19.522 28.0348 19.3817C29.176 18.4373 31.3828 13.8156 26.3591 12.6296C25.8352 12.5287 25.3135 12.5722 24.8215 12.7259C25.7734 12.8223 26.7985 15.6547 24.8215 16.2309C23.2399 16.6918 22.454 15.6508 22.2587 15.0726C21.6551 16.4162 21.7788 18.0221 23.2405 19.14Z" fill="white"/>
<path d="M22.2587 15.0726C22.454 15.6508 23.2399 16.6918 24.8215 16.2309C26.7985 15.6547 25.7734 12.8223 24.8215 12.7259C23.7074 13.0741 22.7461 13.9879 22.2587 15.0726Z" fill="black"/>
<path d="M22.1261 15.6675C22.1065 14.9751 22.0265 14.236 21.5481 13.7277C20.5646 12.6828 19.4168 12.605 18.7063 12.7665C18.4866 12.8164 18.3093 12.9652 18.1584 13.13C18.793 13.9552 19.6814 15.7498 18.1584 16.326C16.6354 16.9022 15.8641 15.9272 15.6689 15.3676C15.4842 15.5192 15.376 15.743 15.376 15.9796V16.4167C15.376 17.1746 15.8827 17.8422 16.6214 18.0576L21.2159 19.3967C21.2712 19.4128 21.3311 19.3954 21.3687 19.3523L21.8487 18.8014C22.0715 18.5457 22.2451 18.249 22.2487 17.9122C22.2549 17.3302 22.1482 16.4489 22.1261 15.6675Z" fill="white"/>
<path d="M15.6689 15.3676C15.8641 15.9272 16.6354 16.9022 18.1584 16.326C19.6814 15.7498 18.793 13.9552 18.1584 13.13C17.588 13.7527 16.4248 14.7473 15.6689 15.3676Z" fill="black"/>
<path d="M33.7943 17.7521C33.635 25.3184 38.0083 29.2675 40.3645 30.4953C40.3645 29.898 40.4885 28.5291 38.577 26.538C36.6655 24.5468 35.6859 20.8052 35.4867 19.345C35.0553 15.5287 33.9536 10.1858 33.7943 17.7521Z" fill="#FE7100"/>
<path d="M33.7943 17.7521C33.635 25.3184 38.0083 29.2675 40.3645 30.4953C40.3645 29.898 40.4885 28.5291 38.577 26.538C36.6655 24.5468 35.6859 20.8052 35.4867 19.345C35.0553 15.5287 33.9536 10.1858 33.7943 17.7521Z" fill="#6C38FF"/>
<path d="M35.0908 22.1326L46.438 27.5964L42.2886 29.5022V35.0777C41.3007 35.7781 38.478 37.1959 35.0908 37.2632C31.7036 37.3304 28.9938 35.6661 28.0624 34.8255V29.402L25.4373 28.1299L24.3364 27.5964L35.0908 22.1326Z" fill="black"/>
<path d="M28.0624 29.402L35.0908 32.8081L42.2886 29.5022M28.0624 29.402V34.8255C28.9938 35.6661 31.7036 37.3304 35.0908 37.2632C38.478 37.1959 41.3007 35.7781 42.2886 35.0777V29.5022M28.0624 29.402L25.4373 28.1299M42.2886 29.5022L46.438 27.5964L35.0908 22.1326L24.3364 27.5964L25.4373 28.1299M25.4373 28.1299V32.8081" stroke="white" stroke-width="4" stroke-linecap="round"/>
</g>
<defs>
<filter id="filter0_d_62_80" x="0" y="0" width="71" height="68.3845" filterUnits="userSpaceOnUse" color-interpolation-filters="sRGB">
<feFlood flood-opacity="0" result="BackgroundImageFix"/>
<feColorMatrix in="SourceAlpha" type="matrix" values="0 0 0 0 0 0 0 0 0 0 0 0 0 0 0 0 0 0 127 0" result="hardAlpha"/>
<feOffset dy="3"/>
<feGaussianBlur stdDeviation="5"/>
<feComposite in2="hardAlpha" operator="out"/>
<feColorMatrix type="matrix" values="0 0 0 0 0 0 0 0 0 0 0 0 0 0 0 0 0 0 0.25 0"/>
<feBlend mode="normal" in2="BackgroundImageFix" result="effect1_dropShadow_62_80"/>
<feBlend mode="normal" in="SourceGraphic" in2="effect1_dropShadow_62_80" result="shape"/>
</filter>
</defs>
</svg>
