<svg width="162" height="161" viewBox="0 0 162 161" fill="none" xmlns="http://www.w3.org/2000/svg">
<path d="M125.866 160.5H42.3657C29.5324 161.167 3.16572 155.3 0.36568 126.5C-2.43436 97.7 11.5323 83.1667 18.8657 79.5C11.5323 77.8333 -2.43432 67.9 0.36568 41.5C3.16568 15.1 26.5323 2.83333 37.8657 0H125.866C135.699 3.83333 156.466 17 160.866 39C165.266 61 150.699 75.1667 142.866 79.5C150.199 82 160.866 92.5 160.866 120.5C160.866 147.49 137.866 158.333 125.866 160.5Z" fill="#FEA1CD"/>
<path d="M85.5 63C89.8008 69.7916 100.422 79.2999 108.5 63" stroke="black" stroke-width="6" stroke-linecap="round"/>
<path d="M55 63C59.3008 69.7916 69.922 79.2999 78 63" stroke="black" stroke-width="6" stroke-linecap="round"/>
<path d="M32 63C50.3252 84.8841 95.5805 115.522 130 63" stroke="black" stroke-width="6" stroke-linecap="round"/>
</svg>
