<svg width="98" height="100" viewBox="0 0 98 100" fill="none" xmlns="http://www.w3.org/2000/svg">
<path fill-rule="evenodd" clip-rule="evenodd" d="M32.4625 12.9349C35.525 1.28526 55.7375 -9.13797 65.2313 12.9349C66.7625 1.89838 89.7313 -9.44461 98 12.9349V74.2483C95.9583 81.095 87.4038 95.8307 69.5188 100H28.175C20.3146 97.854 3.675 89.6993 0 74.2483V12.9349C1.225 2.5116 21.1313 -9.75112 32.4625 12.9349ZM43.4875 38.0734C36.3825 50.8266 27.8687 43.3872 24.5 38.0734C22.05 36.8471 21.2333 38.5844 21.1313 39.6062C23.8263 48.6806 32.6667 49.9273 36.75 49.4164C42.385 47.9449 45.8354 43.0807 46.8563 40.8325C47.3463 37.399 44.8146 37.5625 43.4875 38.0734ZM72.5813 38.0734C65.4762 50.8266 57.3708 43.3872 54.2062 38.0734C52.6135 35.8661 51.0926 37.1537 50.5312 38.0734C49.5513 43.7142 56.2479 47.9858 59.7188 49.4164H66.7625C72.3975 47.6996 75.4396 42.9785 76.2562 40.8325C76.7463 36.4179 74.0104 37.1537 72.5813 38.0734ZM55.4313 52.1755C50.2863 62.7214 43.8958 56.5696 41.3438 52.1755C39.6287 51.4397 38.7917 52.4821 38.5875 53.0952C40.5475 62.1696 48.3875 62.8032 52.0625 61.9857C56.7175 60.0236 58.4938 56.2631 58.8 54.628C59.045 51.4397 56.6562 51.6646 55.4313 52.1755Z" fill="#AE85D1"/>
<path d="M24.5 38.0734C27.8687 43.3872 36.3825 50.8266 43.4875 38.0734C44.8146 37.5625 47.3463 37.399 46.8563 40.8325C45.8354 43.0807 42.385 47.9449 36.75 49.4164C32.6667 49.9273 23.8263 48.6806 21.1313 39.6062C21.2333 38.5844 22.05 36.8471 24.5 38.0734Z" fill="black"/>
<path d="M54.2062 38.0734C57.3708 43.3872 65.4762 50.8266 72.5813 38.0734C74.0104 37.1537 76.7463 36.4179 76.2562 40.8325C75.4396 42.9785 72.3975 47.6996 66.7625 49.4164H59.7188C56.2479 47.9858 49.5513 43.7142 50.5312 38.0734C51.0926 37.1537 52.6135 35.8661 54.2062 38.0734Z" fill="black"/>
<path d="M41.3438 52.1755C43.8958 56.5696 50.2863 62.7214 55.4313 52.1755C56.6562 51.6646 59.045 51.4397 58.8 54.628C58.4938 56.2631 56.7175 60.0236 52.0625 61.9857C48.3875 62.8032 40.5475 62.1696 38.5875 53.0952C38.7917 52.4821 39.6287 51.4397 41.3438 52.1755Z" fill="black"/>
</svg>
